<?xml version="1.0" encoding="utf-8"?>
<!-- Generator: Adobe Illustrator 26.1.0, SVG Export Plug-In . SVG Version: 6.00 Build 0)  -->
<svg version="1.1" id="Layer_1" xmlns="http://www.w3.org/2000/svg" xmlns:xlink="http://www.w3.org/1999/xlink" x="0px" y="0px"
	 viewBox="0 0 64 64" style="enable-background:new 0 0 64 64;" xml:space="preserve">
<path d="M30.9,6.2c14.8,0,26.8,12,26.8,26.8c0,14.8-12,26.9-26.7,26.9c-14.4,0-26.7-11.3-26.9-26.5C3.9,18,16.4,6.2,30.9,6.2z
	 M11.3,20.3C25,27.8,38.6,35.4,52.2,42.9c4.9-10.4,1.5-23.7-9.6-30.1C31.6,6.4,18,10.1,11.3,20.3z M9.7,23.3
	C4.8,33.6,8.2,47.4,20,53.7c11.5,6.2,24.7,1.4,30.5-7.9C36.9,38.3,23.3,30.8,9.7,23.3z"/>
<path d="M24,24.7c0-0.3,0.1-0.5,0.1-0.7c0-0.8,0-1.6,0.1-2.4c0.3-1.6,1.6-2.7,3.3-2.8c2.3,0,4.7,0,7,0c1.8,0,3.2,1.5,3.3,3.3
	c0,0.8,0,1.5,0,2.4c0.2,0,0.4,0,0.6,0c2,0,4.1,0,6.1,0c2,0,3.5,1.5,3.5,3.5c0,3.1,0,6.2,0,9.4c0,0.1,0,0.3,0,0.5
	c-0.6-0.3-1.2-0.6-1.7-0.9c-2.7-1.5-5.5-3-8.2-4.5c-0.2-0.1-0.5-0.3-0.6-0.6c-1.6-2.7-3.9-4-7-3.9c-0.3,0-0.7-0.1-1-0.2
	C27.7,26.7,25.8,25.7,24,24.7z"/>
<path d="M13.9,28.2c0.2,0.1,0.4,0.2,0.5,0.3c2.9,1.6,5.8,3.2,8.7,4.8c0.5,0.2,0.5,0.5,0.5,1c-0.7,4.6,3,8.7,7.7,8.5
	c1.7-0.1,3.2-0.7,4.5-1.9c0.2-0.2,0.4-0.3,0.7-0.2c3.4,1.9,6.7,3.7,10.1,5.6c0,0,0.1,0.1,0.2,0.1c-0.7,0.6-1.5,0.8-2.3,0.8
	c-4.4,0-8.8,0-13.2,0c-4.6,0-9.2,0-13.8,0c-1.8,0-3.2-1.1-3.5-2.8c0-0.2,0-0.4,0-0.6c0-5.1,0-10.2,0-15.3
	C13.9,28.5,13.9,28.4,13.9,28.2z"/>
<path d="M27,35.4c2,1.1,3.9,2.2,5.9,3.2c-0.5,0.6-2.3,0.8-3.5,0.3C27.9,38.4,26.9,36.9,27,35.4z"/>
</svg>
